<mxfile host="app.diagrams.net" modified="2024-03-15T08:47:13.712Z" agent="Mozilla/5.0 (Windows NT 10.0; Win64; x64) AppleWebKit/537.36 (KHTML, like Gecko) Chrome/122.0.0.0 Safari/537.36" etag="QtBJLg8ttcHOyFoo2Wr_" version="24.0.6" type="device">
  <diagram id="R2lEEEUBdFMjLlhIrx00" name="Page-1">
    <mxGraphModel dx="584" dy="758" grid="1" gridSize="10" guides="1" tooltips="1" connect="1" arrows="1" fold="1" page="1" pageScale="1" pageWidth="850" pageHeight="1100" math="0" shadow="0" extFonts="Permanent Marker^https://fonts.googleapis.com/css?family=Permanent+Marker">
      <root>
        <mxCell id="0" />
        <mxCell id="1" parent="0" />
        <mxCell id="fXNIb5vrCbK1GHDizLRb-48" value="" style="rounded=0;whiteSpace=wrap;html=1;fillColor=#f5f5f5;fontColor=#333333;strokeColor=#666666;" parent="1" vertex="1">
          <mxGeometry x="890" y="20" width="780" height="560" as="geometry" />
        </mxCell>
        <mxCell id="fXNIb5vrCbK1GHDizLRb-9" value="USER" style="swimlane;childLayout=stackLayout;horizontal=1;startSize=50;horizontalStack=0;rounded=1;fontSize=14;fontStyle=0;strokeWidth=2;resizeParent=0;resizeLast=1;shadow=0;dashed=0;align=center;arcSize=4;whiteSpace=wrap;html=1;fillColor=#fff2cc;strokeColor=#d6b656;" parent="1" vertex="1">
          <mxGeometry x="1465" y="358" width="130" height="150" as="geometry" />
        </mxCell>
        <mxCell id="fXNIb5vrCbK1GHDizLRb-10" value="- id : int&lt;div&gt;- firstName : String&lt;/div&gt;&lt;div&gt;- lastName : String&lt;/div&gt;&lt;div&gt;- role: String&lt;/div&gt;&lt;div&gt;- email : String&lt;/div&gt;&lt;div&gt;- password : String&lt;/div&gt;&lt;div&gt;&lt;br&gt;&lt;/div&gt;" style="align=left;strokeColor=#d6b656;fillColor=#fff2cc;spacingLeft=4;fontSize=12;verticalAlign=top;resizable=0;rotatable=0;part=1;html=1;" parent="fXNIb5vrCbK1GHDizLRb-9" vertex="1">
          <mxGeometry y="50" width="130" height="100" as="geometry" />
        </mxCell>
        <mxCell id="fXNIb5vrCbK1GHDizLRb-14" value="TRANSACTION" style="swimlane;childLayout=stackLayout;horizontal=1;startSize=50;horizontalStack=0;rounded=1;fontSize=14;fontStyle=0;strokeWidth=2;resizeParent=0;resizeLast=1;shadow=0;dashed=0;align=center;arcSize=4;whiteSpace=wrap;html=1;fillColor=#fff2cc;strokeColor=#d6b656;" parent="1" vertex="1">
          <mxGeometry x="920" y="40" width="170" height="130" as="geometry" />
        </mxCell>
        <mxCell id="fXNIb5vrCbK1GHDizLRb-15" value="- id : int&lt;div&gt;- creationDate : Date&lt;br&gt;&lt;div&gt;- connectionId: int&lt;/div&gt;&lt;div&gt;- description : String&lt;/div&gt;&lt;div&gt;- amount : double&lt;/div&gt;&lt;/div&gt;" style="align=left;strokeColor=#d6b656;fillColor=#fff2cc;spacingLeft=4;fontSize=12;verticalAlign=top;resizable=0;rotatable=0;part=1;html=1;" parent="fXNIb5vrCbK1GHDizLRb-14" vertex="1">
          <mxGeometry y="50" width="170" height="80" as="geometry" />
        </mxCell>
        <mxCell id="fXNIb5vrCbK1GHDizLRb-16" value="CONNECTION" style="swimlane;childLayout=stackLayout;horizontal=1;startSize=50;horizontalStack=0;rounded=1;fontSize=14;fontStyle=0;strokeWidth=2;resizeParent=0;resizeLast=1;shadow=0;dashed=0;align=center;arcSize=4;whiteSpace=wrap;html=1;fillColor=#fff2cc;strokeColor=#d6b656;" parent="1" vertex="1">
          <mxGeometry x="1480" y="40" width="160" height="120" as="geometry" />
        </mxCell>
        <mxCell id="fXNIb5vrCbK1GHDizLRb-17" value="- id: int&lt;div&gt;- senderId : int&lt;br&gt;- recipientd : int&lt;div&gt;&lt;br&gt;&lt;/div&gt;&lt;/div&gt;" style="align=left;strokeColor=#d6b656;fillColor=#fff2cc;spacingLeft=4;fontSize=12;verticalAlign=top;resizable=0;rotatable=0;part=1;html=1;" parent="fXNIb5vrCbK1GHDizLRb-16" vertex="1">
          <mxGeometry y="50" width="160" height="70" as="geometry" />
        </mxCell>
        <mxCell id="fXNIb5vrCbK1GHDizLRb-21" value="ACCOUNT" style="swimlane;childLayout=stackLayout;horizontal=1;startSize=50;horizontalStack=0;rounded=1;fontSize=14;fontStyle=0;strokeWidth=2;resizeParent=0;resizeLast=1;shadow=0;dashed=0;align=center;arcSize=4;whiteSpace=wrap;html=1;fillColor=#fff2cc;strokeColor=#d6b656;" parent="1" vertex="1">
          <mxGeometry x="935" y="378" width="140" height="130" as="geometry" />
        </mxCell>
        <mxCell id="fXNIb5vrCbK1GHDizLRb-22" value="- id : int&lt;div&gt;&lt;div&gt;- balance: double&lt;/div&gt;&lt;div&gt;&lt;br&gt;&lt;/div&gt;&lt;div&gt;&lt;br&gt;&lt;/div&gt;&lt;/div&gt;" style="align=left;strokeColor=#d6b656;fillColor=#fff2cc;spacingLeft=4;fontSize=12;verticalAlign=top;resizable=0;rotatable=0;part=1;html=1;" parent="fXNIb5vrCbK1GHDizLRb-21" vertex="1">
          <mxGeometry y="50" width="140" height="80" as="geometry" />
        </mxCell>
        <mxCell id="fXNIb5vrCbK1GHDizLRb-33" value="+1" style="text;html=1;align=center;verticalAlign=middle;resizable=0;points=[];autosize=1;strokeColor=none;fillColor=none;" parent="1" vertex="1">
          <mxGeometry x="1440" y="68" width="40" height="30" as="geometry" />
        </mxCell>
        <mxCell id="fXNIb5vrCbK1GHDizLRb-34" value="0..*" style="text;html=1;align=center;verticalAlign=middle;resizable=0;points=[];autosize=1;strokeColor=none;fillColor=none;" parent="1" vertex="1">
          <mxGeometry x="1090" y="68" width="40" height="30" as="geometry" />
        </mxCell>
        <mxCell id="fXNIb5vrCbK1GHDizLRb-36" style="edgeStyle=orthogonalEdgeStyle;rounded=0;orthogonalLoop=1;jettySize=auto;html=1;" parent="1" source="fXNIb5vrCbK1GHDizLRb-17" edge="1">
          <mxGeometry relative="1" as="geometry">
            <mxPoint x="1100" y="125" as="targetPoint" />
          </mxGeometry>
        </mxCell>
        <mxCell id="fXNIb5vrCbK1GHDizLRb-42" value="+1" style="text;html=1;align=center;verticalAlign=middle;resizable=0;points=[];autosize=1;strokeColor=none;fillColor=none;" parent="1" vertex="1">
          <mxGeometry x="1075" y="428" width="40" height="30" as="geometry" />
        </mxCell>
        <mxCell id="r1FznJxBU0FJCu6Wu4j5-2" style="edgeStyle=orthogonalEdgeStyle;rounded=0;orthogonalLoop=1;jettySize=auto;html=1;" edge="1" parent="1" source="fXNIb5vrCbK1GHDizLRb-22">
          <mxGeometry relative="1" as="geometry">
            <mxPoint x="1460" y="468" as="targetPoint" />
          </mxGeometry>
        </mxCell>
        <mxCell id="r1FznJxBU0FJCu6Wu4j5-3" value="+1" style="text;html=1;align=center;verticalAlign=middle;resizable=0;points=[];autosize=1;strokeColor=none;fillColor=none;" vertex="1" parent="1">
          <mxGeometry x="1420" y="428" width="40" height="30" as="geometry" />
        </mxCell>
        <mxCell id="r1FznJxBU0FJCu6Wu4j5-4" style="edgeStyle=orthogonalEdgeStyle;rounded=0;orthogonalLoop=1;jettySize=auto;html=1;entryX=0.313;entryY=1.029;entryDx=0;entryDy=0;entryPerimeter=0;" edge="1" parent="1" source="fXNIb5vrCbK1GHDizLRb-9" target="fXNIb5vrCbK1GHDizLRb-17">
          <mxGeometry relative="1" as="geometry" />
        </mxCell>
        <mxCell id="r1FznJxBU0FJCu6Wu4j5-5" value="+1" style="text;html=1;align=center;verticalAlign=middle;resizable=0;points=[];autosize=1;strokeColor=none;fillColor=none;" vertex="1" parent="1">
          <mxGeometry x="1490" y="328" width="40" height="30" as="geometry" />
        </mxCell>
        <mxCell id="r1FznJxBU0FJCu6Wu4j5-6" value="0..*" style="text;html=1;align=center;verticalAlign=middle;resizable=0;points=[];autosize=1;strokeColor=none;fillColor=none;" vertex="1" parent="1">
          <mxGeometry x="1480" y="170" width="40" height="30" as="geometry" />
        </mxCell>
      </root>
    </mxGraphModel>
  </diagram>
</mxfile>
